<svg width="26" height="26" viewBox="0 0 26 26" fill="none" xmlns="http://www.w3.org/2000/svg">
<path fill-rule="evenodd" clip-rule="evenodd" d="M12.193 0.942684C11.9871 1.01281 11.7129 1.14134 11.5836 1.22823C11.4545 1.31516 10.8688 1.86147 10.2823 2.44231C9.6958 3.02309 9.15158 3.52242 9.07297 3.55193C8.98537 3.58473 8.38554 3.60565 7.52414 3.60591C6.75089 3.60611 5.96972 3.62977 5.78818 3.65857C4.72558 3.82691 3.82071 4.73132 3.65659 5.78909C3.6284 5.97064 3.6052 6.7518 3.60499 7.52505C3.60474 8.38645 3.58382 8.98628 3.55101 9.07388C3.52151 9.15249 3.02218 9.69671 2.44139 10.2832C1.86056 10.8698 1.3141 11.4555 1.22706 11.585C0.682126 12.395 0.682126 13.605 1.22706 14.4151C1.3141 14.5445 1.86056 15.1303 2.44139 15.7168C3.02218 16.3034 3.52151 16.8476 3.55101 16.9262C3.58382 17.0138 3.60474 17.6136 3.60499 18.475C3.6052 19.2483 3.62886 20.0294 3.65765 20.211C3.82599 21.2736 4.73041 22.1784 5.78818 22.3426C5.96972 22.3707 6.75089 22.394 7.52414 22.3942C8.39448 22.3944 8.9842 22.4152 9.0722 22.4486C9.15041 22.4783 9.72891 23.0099 10.3577 23.6299C11.56 24.8151 11.7473 24.9541 12.3644 25.1186C12.69 25.2055 13.3083 25.2055 13.6339 25.1186C14.2509 24.9541 14.4382 24.8151 15.6405 23.6299C16.2693 23.0099 16.8478 22.4783 16.926 22.4486C17.014 22.4152 17.6038 22.3944 18.4741 22.3942C19.2473 22.394 20.0285 22.3707 20.2101 22.3426C21.2678 22.1784 22.1722 21.2736 22.3406 20.211C22.3694 20.0294 22.393 19.2483 22.3932 18.475C22.3935 17.6019 22.4142 17.0149 22.4479 16.9262C22.4777 16.8476 22.9984 16.2805 23.6048 15.666C24.7613 14.4944 24.9262 14.2744 25.1056 13.6636C25.2094 13.3103 25.2094 12.6898 25.1056 12.3364C24.9262 11.7257 24.7613 11.5057 23.6048 10.334C22.9984 9.71956 22.4777 9.15249 22.4479 9.07388C22.4142 8.98511 22.3935 8.39818 22.3932 7.52505C22.3928 5.92123 22.3566 5.60415 22.1154 5.09187C21.8197 4.46365 21.2892 3.99073 20.6106 3.75023C20.3053 3.64206 20.195 3.63439 18.7374 3.61967C17.8855 3.61109 17.1089 3.59093 17.0116 3.57488C16.8651 3.55066 16.6383 3.3521 15.6913 2.41895C14.4924 1.23762 14.2735 1.07294 13.6627 0.893528C13.2403 0.769469 12.6429 0.789426 12.193 0.942684ZM15.8683 10.1514C15.7845 10.2043 14.8705 11.0954 13.8373 12.1316C12.804 13.1679 11.9359 14.0157 11.9081 14.0157C11.8803 14.0157 11.4645 13.623 10.984 13.1431L10.1104 12.2706L9.81549 12.2517C9.47134 12.2295 9.25344 12.3358 9.08871 12.606C8.98715 12.7726 8.95739 13.1346 9.03011 13.3185C9.09592 13.4849 11.3307 15.7439 11.5303 15.8457C11.7599 15.9629 12.0238 15.9733 12.2517 15.8745C12.3444 15.8342 13.3962 14.8184 14.6836 13.5258C16.6816 11.5197 16.9589 11.2223 17.0089 11.0323C17.1074 10.6569 16.9375 10.3006 16.5699 10.1117C16.3976 10.0232 16.0391 10.0434 15.8683 10.1514Z" fill="#1C91F9"/>
</svg>
