<svg width="40" height="40" viewBox="0 0 40 40" fill="none" xmlns="http://www.w3.org/2000/svg">
<path d="M28.334 0H13.334V26.6667H36.6673V8.33333C36.6673 6.1232 35.7893 4.00358 34.2265 2.44078C32.6637 0.877974 30.5441 0 28.334 0Z" fill="#1C91F9"/>
<path d="M7.32565 26.7677C7.65747 26.6999 7.99531 26.6658 8.33398 26.666H10.0007V0.166016C8.11838 0.550233 6.42666 1.57299 5.21181 3.06118C3.99696 4.54937 3.33359 6.41159 3.33398 8.33268V28.3743C4.49907 27.4953 5.87644 26.9409 7.32565 26.7677Z" fill="#1C91F9"/>
<path d="M36.6673 30H8.33398C7.0079 30 5.73613 30.5268 4.79845 31.4645C3.86077 32.4021 3.33398 33.6739 3.33398 35C3.33398 36.3261 3.86077 37.5979 4.79845 38.5355C5.73613 39.4732 7.0079 40 8.33398 40H28.334C29.4283 40 30.512 39.7845 31.523 39.3657C32.5341 38.9469 33.4527 38.333 34.2265 37.5592C35.0004 36.7854 35.6142 35.8667 36.033 34.8557C36.4518 33.8446 36.6673 32.761 36.6673 31.6667V30Z" fill="#1C91F9"/>
</svg>
