<svg width="30" height="31" viewBox="0 0 30 31" fill="none" xmlns="http://www.w3.org/2000/svg">
<path d="M14.9948 19.0266C14.8442 19.0266 14.704 19.0025 14.5742 18.9544C14.4444 18.9063 14.321 18.8238 14.2039 18.7069L8.58606 13.0891C8.41315 12.9159 8.32461 12.6983 8.32044 12.4363C8.31648 12.1744 8.40502 11.9528 8.58606 11.7716C8.76731 11.5905 8.9869 11.5 9.24481 11.5C9.50273 11.5 9.72231 11.5905 9.90356 11.7716L14.9948 16.8631L20.0861 11.7716C20.2592 11.5986 20.4768 11.5101 20.7389 11.5059C21.0008 11.502 21.2223 11.5905 21.4036 11.7716C21.5846 11.9528 21.6751 12.1724 21.6751 12.4303C21.6751 12.6882 21.5846 12.9078 21.4036 13.0891L15.7858 18.7069C15.6687 18.8238 15.5452 18.9063 15.4154 18.9544C15.2856 19.0025 15.1454 19.0266 14.9948 19.0266Z" fill="#0A0B11"/>
</svg>
