<svg width="213" height="43" viewBox="0 0 213 43" fill="none" xmlns="http://www.w3.org/2000/svg">
<path fill-rule="evenodd" clip-rule="evenodd" d="M172.537 13.0895C173.127 13.0896 173.668 13.1392 174.16 13.2375C174.676 13.3113 175.119 13.4221 175.487 13.5696H182.678V16.778H178.843C179.212 17.1959 179.519 17.7246 179.765 18.3637C180.011 19.003 180.134 19.7041 180.134 20.4663C180.134 21.9413 179.79 23.2073 179.101 24.2645C178.438 25.2971 177.528 26.0966 176.372 26.6621C175.217 27.2029 173.938 27.474 172.537 27.474C172.095 27.474 171.615 27.4243 171.099 27.326C170.607 27.2031 170.139 27.0551 169.697 26.883C169.377 27.1534 169.107 27.4493 168.886 27.7689C168.689 28.0885 168.591 28.4941 168.591 28.9857C168.591 29.5757 168.825 30.0556 169.292 30.4244C169.784 30.7929 170.681 30.9772 171.983 30.9773H175.745C178.13 30.9773 179.938 31.3702 181.167 32.157C182.396 32.9192 183.01 34.1614 183.01 35.8824C183.01 37.1855 182.58 38.3779 181.72 39.4597C180.859 40.5415 179.63 41.402 178.032 42.0412C176.458 42.6805 174.59 43 172.426 43C170.804 43 169.353 42.791 168.074 42.3731C166.796 41.9798 165.789 41.39 165.051 40.6035C164.338 39.8168 163.982 38.833 163.981 37.6529C163.981 36.7925 164.239 35.9806 164.755 35.2185C165.271 34.4563 165.997 33.7924 166.932 33.2269V33.0789C166.415 32.7348 165.973 32.2927 165.604 31.752C165.26 31.1866 165.087 30.4977 165.087 29.6864C165.087 28.8751 165.321 28.1491 165.788 27.5099C166.28 26.8462 166.808 26.3175 167.373 25.9242V25.7773C166.661 25.2364 166.034 24.498 165.493 23.5637C164.952 22.6295 164.682 21.5599 164.682 20.3553C164.682 18.831 165.038 17.5277 165.751 16.446C166.488 15.3395 167.448 14.504 168.628 13.9384C169.833 13.373 171.136 13.0895 172.537 13.0895ZM169.329 34.0747C168.739 34.5173 168.308 34.9971 168.037 35.5134C167.767 36.0296 167.632 36.5343 167.632 37.026C167.633 38.0091 168.112 38.7833 169.07 39.3487C170.029 39.9142 171.344 40.1974 173.016 40.1974C174.221 40.1974 175.254 40.0248 176.114 39.6806C176.974 39.3364 177.651 38.8823 178.143 38.3169C178.634 37.776 178.88 37.1978 178.88 36.5831C178.88 35.7226 178.56 35.1321 177.921 34.8125C177.281 34.5176 176.347 34.3705 175.118 34.3705H172.057C171.566 34.3705 171.098 34.3459 170.656 34.2967C170.213 34.2475 169.771 34.173 169.329 34.0747ZM70.2638 31.954C70.2638 32.498 70.1347 32.9418 69.8767 33.2854C69.6727 33.5655 69.3553 33.8458 68.9245 34.126C68.871 34.1607 68.8157 34.1955 68.7587 34.2303C68.3036 34.5257 67.695 34.8032 66.9329 35.0626C66.7349 35.13 66.5263 35.1961 66.3074 35.261C65.2467 35.6046 64.0283 35.7764 62.6522 35.7764C60.5881 35.7764 58.7676 35.4185 57.1908 34.7028C55.6141 33.9869 54.3812 32.8703 53.4925 31.3528C52.6037 29.8067 52.1594 27.8166 52.1594 25.3829C52.1594 22.892 52.5894 20.8734 53.4495 19.3273C54.3382 17.7812 55.528 16.6501 57.0188 15.9343C58.5095 15.1899 60.1437 14.8177 61.9211 14.8177C63.0392 14.8177 64.1001 14.9752 65.1035 15.2902C65.7724 15.5001 66.3457 15.7419 66.8235 16.0155V4.92511H70.2638V31.954ZM39.909 13.4669C41.7521 13.467 43.3052 13.8834 44.5676 14.7167C45.8299 15.5247 46.7892 16.6738 47.4456 18.1636C48.102 19.6281 48.4306 21.3454 48.4306 23.3149C48.4306 23.7441 48.4054 24.1609 48.3549 24.5649C48.3296 24.9436 48.2787 25.2722 48.203 25.5499H34.6823C34.8086 26.8628 35.1487 27.9994 35.7042 28.9589C36.2849 29.8932 37.0301 30.6255 37.9391 31.1558C38.8733 31.6608 39.9342 31.9131 41.1209 31.9131C42.0551 31.9131 42.9263 31.7743 43.7342 31.4965C44.5422 31.2188 45.3245 30.8393 46.082 30.3596L47.5975 33.1252C46.638 33.7565 45.5644 34.2864 44.3777 34.7157C43.2163 35.1449 41.9538 35.36 40.5904 35.36C38.6968 35.36 36.9797 34.9308 35.4395 34.0723C33.8993 33.1885 32.6751 31.9378 31.7661 30.3217C30.8572 28.6804 30.4025 26.7108 30.4025 24.413C30.4025 22.7213 30.6675 21.2063 31.1977 19.868C31.7279 18.5045 32.4475 17.3555 33.3564 16.4212C34.2654 15.4616 35.2883 14.7291 36.4245 14.2241C37.5607 13.7191 38.7223 13.4669 39.909 13.4669ZM12.9561 21.4465L21.3103 6.97755H25.9143V34.8876H21.9275V13.883L14.9506 25.4336L13.9539 26.9133H11.9605L10.9638 25.418L3.98679 13.883V34.8876H0V6.97755H4.60303L12.9561 21.4465ZM136.024 29.3176C136.024 29.8828 136.122 30.2885 136.319 30.5344C136.54 30.7556 136.774 30.8662 137.02 30.8663H137.315L137.347 30.8582C137.557 30.8054 138.544 30.5574 138.728 30.5344L139.244 33.7427C138.997 33.8412 137.72 34.186 137.352 34.2597C136.983 34.358 136.528 34.4066 135.987 34.4066C134.955 34.4065 134.131 34.1976 133.517 33.7797C132.902 33.3371 132.459 32.7228 132.189 31.9361C131.919 31.1248 131.783 30.1782 131.783 29.0965V4.49631H136.024V29.3176ZM150.917 13.0895C152.146 13.0895 153.34 13.3357 154.495 13.8275C155.65 14.2946 156.67 14.9834 157.555 15.893C158.44 16.8027 159.141 17.921 159.658 19.2485C160.174 20.5516 160.432 22.052 160.432 23.7485C160.432 25.9857 159.977 27.9034 159.068 29.5015C158.183 31.075 157.014 32.2924 155.564 33.1529C154.138 33.9888 152.589 34.4066 150.917 34.4066C149.246 34.4065 147.672 33.9888 146.197 33.1529C144.747 32.2924 143.566 31.075 142.656 29.5015C141.771 27.9034 141.33 25.9857 141.33 23.7485C141.33 21.4865 141.771 19.5682 142.656 17.9947C143.566 16.3965 144.747 15.1794 146.197 14.3434C147.672 13.5076 149.246 13.0896 150.917 13.0895ZM80.412 33.8907H76.0562V13.0205H80.412V33.8907ZM191.017 33.8907H186.776V13.5696H191.017V33.8907ZM202.232 17.6628L203.191 19.3595C203.51 19.925 203.83 20.503 204.149 21.093H204.333C204.579 20.503 204.838 19.925 205.108 19.3595L205.55 18.5112L205.993 17.6628L208.132 13.5696H212.557L206.473 23.7485L213 33.8907H208.39L205.735 29.5754C205.415 28.9855 205.083 28.3834 204.739 27.7689C204.395 27.1542 204.026 26.5637 203.633 25.9982H203.448C203.153 26.5637 202.846 27.1542 202.527 27.7689C202.207 28.3588 201.888 28.9609 201.568 29.5754L199.208 33.8907H194.782L201.309 23.3057L195.225 13.5696H199.835L202.232 17.6628ZM62.2653 17.6523C61.0899 17.6523 60.0004 17.91 58.997 18.4253C57.9936 18.9121 57.1907 19.7282 56.5887 20.8734C55.9867 22.0187 55.6857 23.5506 55.6857 25.4689C55.6857 28.0744 56.3164 29.9784 57.5778 31.181C58.8392 32.3549 60.5164 32.9419 62.6092 32.9419C63.6126 32.9419 64.4296 32.8417 65.0603 32.6413C65.7197 32.4122 66.3075 32.1402 66.8235 31.8253V19.0815C66.3933 18.7698 65.8917 18.4938 65.3183 18.2537C64.4583 17.8528 63.4406 17.6523 62.2653 17.6523ZM150.917 16.5939C149.836 16.594 148.902 16.9011 148.115 17.5157C147.353 18.1058 146.762 18.9415 146.344 20.0232C145.926 21.0805 145.718 22.3225 145.718 23.7485C145.718 25.1743 145.927 26.4282 146.344 27.5099C146.762 28.5671 147.353 29.3914 148.115 29.9815C148.902 30.5714 149.836 30.8662 150.917 30.8663C151.974 30.8663 152.884 30.5715 153.646 29.9815C154.433 29.3914 155.036 28.5671 155.454 27.5099C155.872 26.4282 156.081 25.1743 156.081 23.7485C156.081 22.3225 155.872 21.0805 155.454 20.0232C155.036 18.9415 154.433 18.1058 153.646 17.5157C152.884 16.9011 151.974 16.594 150.917 16.5939ZM172.537 16.0771C171.824 16.0771 171.173 16.2497 170.583 16.5939C170.017 16.9381 169.562 17.4295 169.218 18.0687C168.874 18.6833 168.701 19.4456 168.701 20.3553C168.701 21.265 168.874 22.0519 169.218 22.7157C169.587 23.3549 170.054 23.8463 170.62 24.1905C171.21 24.5346 171.849 24.7075 172.537 24.7075C173.225 24.7075 173.865 24.5346 174.455 24.1905C175.045 23.8462 175.512 23.3549 175.856 22.7157C176.2 22.0519 176.372 21.2649 176.372 20.3553C176.372 19.4457 176.2 18.6833 175.856 18.0687C175.512 17.4295 175.045 16.9382 174.455 16.5939C173.889 16.2498 173.25 16.0771 172.537 16.0771ZM39.984 16.9138C39.1257 16.9139 38.3177 17.128 37.5603 17.5572C36.8029 17.9865 36.1596 18.6182 35.6293 19.4514C35.1244 20.2848 34.7958 21.3076 34.6443 22.5197H44.6433C44.6433 20.752 44.2387 19.3752 43.4307 18.3904C42.6479 17.4058 41.4988 16.9138 39.984 16.9138ZM188.916 4.71811C189.677 4.71817 190.305 4.95113 190.796 5.4181C191.288 5.88525 191.534 6.48821 191.534 7.2258C191.534 8.01244 191.288 8.63927 190.796 9.10639C190.304 9.57348 189.678 9.80724 188.916 9.8073C188.104 9.8073 187.453 9.57349 186.961 9.10639C186.494 8.63925 186.26 8.01253 186.26 7.2258C186.26 6.48819 186.494 5.88526 186.961 5.4181C187.453 4.9512 188.104 4.71811 188.916 4.71811ZM78.253 3.92969C79.0357 3.92969 79.6801 4.16933 80.1851 4.64911C80.6899 5.12887 80.9425 5.748 80.9425 6.50546C80.9424 7.31319 80.6898 7.95705 80.1851 8.43673C79.6801 8.91647 79.0357 9.15596 78.253 9.15596C77.4199 9.15592 76.751 8.91642 76.2461 8.43673C75.7664 7.95703 75.5267 7.31332 75.5266 6.50546C75.5266 5.7479 75.7663 5.12889 76.2461 4.64911C76.751 4.16941 77.4199 3.92973 78.253 3.92969Z" fill="#3890DE"/>
<path d="M104.908 6.73318C106.43 6.7332 107.815 7.18304 109.064 8.08322C110.313 8.98341 111.3 10.2554 112.027 11.8982C112.611 13.1998 112.96 14.6831 113.074 16.3477C107.582 16.8414 102.619 18.1826 98.417 19.8325C98.0216 18.5162 97.8231 17.0526 97.8231 15.4424C97.8232 13.6646 98.1185 12.1229 98.7089 10.8177C99.322 9.51247 100.163 8.51134 101.23 7.81369C102.297 7.09357 103.523 6.73323 104.908 6.73318Z" fill="#3CB03E"/>
<path d="M113.052 18.9818C112.936 20.1905 112.664 21.2726 112.232 22.2281C111.641 23.5333 110.824 24.546 109.78 25.2662C108.735 25.9863 107.52 26.3467 106.135 26.3467C104.591 26.3466 103.183 25.8965 101.911 24.9965C101.308 24.5619 100.763 24.0409 100.277 23.4333C104.337 21.7074 108.86 20.1973 113.052 18.9818Z" fill="#3CB03E"/>
<path d="M97.2723 24.795C97.7972 25.3172 98.3776 25.79 99.0154 26.2115C100.582 27.2241 102.365 27.8204 104.363 28.0005C104.593 28.0054 104.889 28.0063 105.222 28.0005C106.192 30.0146 109.048 34.0765 113.627 36.7974C111.288 37.4959 108.772 37.8779 106.149 37.8779C99.1043 37.8779 92.818 35.1346 88.7067 30.8439C90.3505 28.6799 93.4753 26.6381 97.2723 24.795Z" fill="#3CB03E"/>
<path d="M106.149 0C118.535 3.17022e-05 128.575 8.47922 128.575 18.9388C128.575 25.8145 124.236 31.8332 117.745 35.1513C112.123 32.6749 109.526 29.2082 108.894 27.5624C110.483 27.1123 111.88 26.3694 113.083 25.3342C114.287 24.2765 115.229 23.0047 115.911 21.5194C116.415 20.4028 116.732 19.2056 116.863 17.9284C119.204 17.3149 121.337 16.816 123.093 16.4469C120.985 16.2126 118.925 16.1212 116.923 16.1481C116.878 14.6403 116.589 13.2458 116.047 11.9654C115.479 10.5702 114.673 9.36652 113.628 8.35386C112.606 7.31868 111.392 6.51904 109.984 5.95642C108.599 5.37127 107.088 5.07939 105.453 5.07939C103.818 5.07942 102.297 5.37137 100.889 5.95642C99.504 6.51906 98.2885 7.3186 97.2439 8.35386C96.2223 9.36643 95.4279 10.5704 94.8603 11.9654C94.2926 13.3607 94.0086 14.8915 94.0086 16.5569C94.0086 18.3022 94.3175 19.8983 94.9332 21.3463C90.8012 23.3185 87.6824 25.4722 85.8928 27.0768C84.5016 24.6115 83.7232 21.8518 83.7232 18.9388C83.7233 8.4792 93.7637 0 106.149 0Z" fill="#3CB03E"/>
</svg>
