<svg width="40" height="40" viewBox="0 0 40 40" fill="none" xmlns="http://www.w3.org/2000/svg">
<path d="M30 11.6667C30 7.07167 26.2617 3.33333 21.6667 3.33333H21.3817C20.6933 1.39333 18.84 0 16.6667 0H13.3333C11.16 0 9.30667 1.39333 8.61833 3.33333H8.33333C3.73833 3.33333 0 7.07167 0 11.6667V31.6667C0 36.2617 3.73833 40 8.33333 40H21.6667C21.78 40 21.885 39.9717 21.9983 39.9667C19.245 37.5233 17.5 33.97 17.5 30C17.5 29.4333 17.5483 28.88 17.6167 28.3333H8.33333C7.41333 28.3333 6.66667 27.5883 6.66667 26.6667C6.66667 25.745 7.41333 25 8.33333 25H18.4717C18.9633 23.7883 19.6333 22.67 20.44 21.6667H8.33333C7.41333 21.6667 6.66667 20.9217 6.66667 20C6.66667 19.0783 7.41333 18.3333 8.33333 18.3333H24.4283C26.1017 17.415 27.9867 16.8333 30 16.7083V11.6667ZM21.6667 15H8.33333C7.41333 15 6.66667 14.255 6.66667 13.3333C6.66667 12.4117 7.41333 11.6667 8.33333 11.6667H21.6667C22.5867 11.6667 23.3333 12.4117 23.3333 13.3333C23.3333 14.255 22.5867 15 21.6667 15ZM38.8867 32.7167L37.97 32.1883C38.185 31.4917 38.3333 30.7667 38.3333 30.0017C38.3333 29.2367 38.185 28.51 37.97 27.815L38.8867 27.2867C39.685 26.8267 39.9583 25.8083 39.4983 25.01C39.0383 24.2133 38.02 23.9383 37.2233 24.3983L36.3167 24.9217C35.3083 23.835 33.995 23.045 32.5017 22.7033V21.6683C32.5017 20.7483 31.755 20.0017 30.835 20.0017C29.915 20.0017 29.1683 20.7483 29.1683 21.6683V22.7033C27.675 23.045 26.36 23.8333 25.3533 24.9217L24.4467 24.3983C23.65 23.9383 22.63 24.2133 22.1717 25.01C21.7117 25.8083 21.985 26.8267 22.7833 27.2867L23.7 27.815C23.485 28.5117 23.3367 29.2367 23.3367 30.0017C23.3367 30.7667 23.485 31.4933 23.7 32.1883L22.7833 32.7167C21.985 33.1767 21.7117 34.195 22.1717 34.9933C22.6317 35.79 23.65 36.065 24.4467 35.605L25.3533 35.0817C26.3617 36.1683 27.675 36.9583 29.1683 37.3V38.335C29.1683 39.255 29.915 40.0017 30.835 40.0017C31.755 40.0017 32.5017 39.255 32.5017 38.335V37.3C33.995 36.9583 35.31 36.17 36.3167 35.0817L37.2233 35.605C38.02 36.065 39.04 35.79 39.4983 34.9933C39.9583 34.195 39.685 33.1767 38.8867 32.7167ZM30.8333 32.5C29.455 32.5 28.3333 31.3783 28.3333 30C28.3333 28.6217 29.455 27.5 30.8333 27.5C32.2117 27.5 33.3333 28.6217 33.3333 30C33.3333 31.3783 32.2117 32.5 30.8333 32.5Z" fill="white"/>
</svg>
