<svg width="40" height="40" viewBox="0 0 40 40" fill="none" xmlns="http://www.w3.org/2000/svg">
<path d="M40 36.6665C40 38.5082 38.5083 39.9999 36.6667 39.9999C35.4367 39.9999 34.3733 39.3249 33.795 38.3332H31.6667C28.91 38.3332 26.6667 36.0899 26.6667 33.3332V24.9999C26.6667 24.0782 27.4133 23.3332 28.3333 23.3332C29.2533 23.3332 30 24.0782 30 24.9999V33.3332C30 34.2532 30.7483 34.9999 31.6667 34.9999H33.795C34.3717 34.0082 35.435 33.3332 36.6667 33.3332C38.5083 33.3332 40 34.8249 40 36.6665ZM21.6667 33.7949V24.9999C21.6667 24.0782 20.92 23.3332 20 23.3332C19.08 23.3332 18.3333 24.0782 18.3333 24.9999V33.7949C17.3417 34.3715 16.6667 35.4349 16.6667 36.6665C16.6667 38.5082 18.1583 39.9999 20 39.9999C21.8417 39.9999 23.3333 38.5082 23.3333 36.6665C23.3333 35.4365 22.6583 34.3732 21.6667 33.7949ZM11.6667 23.3332C10.7467 23.3332 10 24.0782 10 24.9999V33.3332C10 34.2532 9.25167 34.9999 8.33333 34.9999H6.205C5.62833 34.0082 4.565 33.3332 3.33333 33.3332C1.49167 33.3332 0 34.8249 0 36.6665C0 38.5082 1.49167 39.9999 3.33333 39.9999C4.56333 39.9999 5.62667 39.3249 6.205 38.3332H8.33333C11.09 38.3332 13.3333 36.0899 13.3333 33.3332V24.9999C13.3333 24.0782 12.5867 23.3332 11.6667 23.3332ZM33.3333 24.9999V28.0715C35.92 26.3232 37.78 23.5449 38.2217 20.3599C39.07 14.2449 34.9967 8.90986 29.3933 7.73986C28.7217 7.59986 28.1333 7.15986 27.8183 6.54986C25.7083 2.45986 21.3383 -0.271806 16.355 0.0215272C11.1517 0.326527 6.66 4.14319 5.36667 9.19153C4.94333 10.8415 4.90833 12.4332 5.14667 13.9332C5.28333 14.7949 4.94833 15.6382 4.29833 16.2199C2.41333 17.9082 1.33667 20.4732 1.75667 23.2915C2.16833 26.0632 4.10833 28.4115 6.66667 29.4315V24.9999C6.66667 22.2432 8.91 19.9999 11.6667 19.9999C13.4067 19.9999 14.9367 20.8949 15.8333 22.2465C16.73 20.8949 18.26 19.9999 20 19.9999C21.74 19.9999 23.27 20.8949 24.1667 22.2465C25.0633 20.8949 26.5933 19.9999 28.3333 19.9999C31.09 19.9999 33.3333 22.2432 33.3333 24.9999Z" fill="white"/>
</svg>
