<svg width="40" height="40" viewBox="0 0 40 40" fill="none" xmlns="http://www.w3.org/2000/svg">
<path d="M28.7677 20.228H22.47C20.994 20.228 19.7975 19.0312 19.7975 17.555V11.2386C19.8012 9.9925 19.2254 8.81544 18.2394 8.05369C17.3051 7.31367 16.0801 7.04992 14.9242 7.33999C7.06779 9.29064 2.27983 17.2423 4.23012 25.1005C5.60417 30.6369 10.0644 34.8734 15.6632 35.9602C23.3117 37.4245 30.7746 32.6682 32.6788 25.1157C32.9699 23.958 32.7067 22.7309 31.9666 21.7944C31.1962 20.81 30.0175 20.2328 28.7677 20.228Z" fill="#1C91F9"/>
<path d="M35.689 13.8017C35.3832 12.6645 34.9279 11.573 34.3349 10.5557C32.5512 7.49392 29.6376 5.25514 26.221 4.3211C25.996 4.26036 25.4924 4.22461 25.4924 4.22461C25.3124 4.22467 24.5375 4.22461 23.924 4.72184C23.0224 5.4318 22.8806 6.23893 22.8672 6.30194C22.8205 6.49958 22.7962 6.70193 22.7949 6.90503V13.204C22.7949 15.4245 24.5939 17.2246 26.813 17.2246H33.1335C33.972 17.227 34.7612 16.8286 35.2577 16.1524C35.6249 15.6571 35.8137 15.052 35.7934 14.4356C35.7828 14.221 35.7477 14.0083 35.689 13.8017Z" fill="#1C91F9"/>
</svg>
