<svg width="40" height="40" viewBox="0 0 40 40" fill="none" xmlns="http://www.w3.org/2000/svg">
<path d="M20 12.9167V3.65167C24.0206 5.17534 29.0994 10.1581 30.6817 14.3333H21.4167C20.6347 14.3333 20 13.6972 20 12.9167ZM30.625 28.5C34.9373 28.5 36.6869 27.3511 37 26.9714V23.5417C37 22.2907 34.3792 21.4167 30.625 21.4167C26.8708 21.4167 24.25 22.2907 24.25 23.5417V26.9714C24.5631 27.3511 26.3127 28.5 30.625 28.5ZM30.625 37C34.6752 37 37 35.8808 37 33.9301V30.2326C35.4714 30.8927 33.3592 31.3333 30.625 31.3333C27.8908 31.3333 25.7786 30.8927 24.25 30.2326V33.9301C24.25 35.8808 26.5747 37 30.625 37ZM21.4167 33.9301V23.5417C21.4167 22.0513 22.3148 18.5833 30.625 18.5833C30.8729 18.5833 31.0925 18.5961 31.3277 18.6017C31.3206 18.0337 31.3107 17.3112 31.3007 17.1667H21.4181C19.0749 17.1667 17.1681 15.2598 17.1681 12.9167V3.034C16.94 3.01842 16.7119 3 16.481 3H10.0833C6.17758 3 3 6.17758 3 10.0833V29.9167C3 33.8224 6.17758 37 10.0833 37H22.4806C21.5583 35.8072 21.4167 34.5534 21.4167 33.9301ZM11.5 29.9167C11.5 30.6987 10.8667 31.3333 10.0833 31.3333C9.29992 31.3333 8.66667 30.6987 8.66667 29.9167V25.6667C8.66667 24.8847 9.29992 24.25 10.0833 24.25C10.8667 24.25 11.5 24.8847 11.5 25.6667V29.9167ZM17.1667 29.9167C17.1667 30.6987 16.5334 31.3333 15.75 31.3333C14.9666 31.3333 14.3333 30.6987 14.3333 29.9167V20C14.3333 19.218 14.9666 18.5833 15.75 18.5833C16.5334 18.5833 17.1667 19.218 17.1667 20V29.9167Z" fill="#1C91F9"/>
</svg>
