<svg width="248" height="50" viewBox="0 0 248 50" fill="none" xmlns="http://www.w3.org/2000/svg">
<path fill-rule="evenodd" clip-rule="evenodd" d="M200.367 15.2204C201.052 15.2204 201.681 15.2781 202.251 15.3925C202.851 15.4782 203.365 15.6071 203.793 15.7786H212.144V19.5093H207.691C208.119 19.9953 208.476 20.61 208.761 21.3532C209.047 22.0965 209.19 22.9117 209.19 23.798C209.19 25.5131 208.79 26.9853 207.99 28.2145C207.22 29.4153 206.163 30.3448 204.821 31.0024C203.479 31.6313 201.994 31.9465 200.367 31.9465C199.853 31.9465 199.296 31.8888 198.697 31.7744C198.126 31.6315 197.583 31.4594 197.069 31.2592C196.698 31.5737 196.384 31.9177 196.127 32.2894C195.899 32.661 195.785 33.1326 195.785 33.7043C195.785 34.3904 196.056 34.9484 196.599 35.3772C197.17 35.8057 198.212 36.02 199.724 36.0201H204.093C206.862 36.0201 208.961 36.4769 210.389 37.3918C211.816 38.2781 212.53 39.7226 212.53 41.7237C212.53 43.2389 212.03 44.6255 211.031 45.8834C210.032 47.1413 208.604 48.1418 206.748 48.8851C204.921 49.6284 202.751 50 200.238 50C198.354 50 196.669 49.757 195.185 49.271C193.701 48.8137 192.53 48.1279 191.674 47.2134C190.846 46.2986 190.432 45.1546 190.432 43.7825C190.432 42.782 190.731 41.8379 191.33 40.9517C191.93 40.0655 192.773 39.2935 193.858 38.636V38.4639C193.258 38.0637 192.744 37.5497 192.316 36.9209C191.916 36.2634 191.716 35.4625 191.716 34.5191C191.716 33.5757 191.987 32.7316 192.53 31.9882C193.1 31.2165 193.714 30.6018 194.371 30.1444V29.9736C193.543 29.3446 192.815 28.486 192.187 27.3997C191.559 26.3134 191.245 25.0697 191.245 23.6689C191.245 21.8965 191.659 20.3811 192.486 19.1232C193.343 17.8367 194.457 16.8651 195.828 16.2075C197.227 15.55 198.74 15.2204 200.367 15.2204ZM196.642 39.6218C195.956 40.1364 195.456 40.6942 195.142 41.2946C194.828 41.8949 194.672 42.4818 194.671 43.0535C194.672 44.1967 195.228 45.0969 196.341 45.7543C197.454 46.4118 198.982 46.7412 200.923 46.7412C202.322 46.7412 203.522 46.5405 204.521 46.1402C205.52 45.74 206.306 45.2119 206.877 44.5545C207.448 43.9256 207.734 43.2532 207.734 42.5385C207.734 41.5379 207.361 40.8513 206.619 40.4796C205.877 40.1367 204.792 39.9657 203.365 39.9657H199.81C199.239 39.9657 198.696 39.937 198.182 39.8799C197.669 39.8227 197.155 39.736 196.642 39.6218ZM81.5974 37.1558C81.5974 37.7884 81.4474 38.3044 81.1478 38.7039C80.9109 39.0297 80.5423 39.3556 80.042 39.6813C79.9799 39.7218 79.9157 39.7622 79.8495 39.8027C79.321 40.1462 78.6142 40.4688 77.7292 40.7704C77.4992 40.8488 77.257 40.9257 77.0028 41.0012C75.771 41.4007 74.356 41.6005 72.758 41.6005C70.3609 41.6005 68.2468 41.1843 66.4157 40.352C64.5846 39.5197 63.1529 38.2213 62.1208 36.4568C61.0887 34.6589 60.5727 32.3449 60.5727 29.515C60.5727 26.6185 61.0721 24.2714 62.0709 22.4736C63.103 20.6758 64.4846 19.3606 66.2159 18.5282C67.9471 17.6626 69.8448 17.2299 71.909 17.2299C73.2074 17.2299 74.4394 17.413 75.6047 17.7792C76.3814 18.0234 77.0472 18.3045 77.6021 18.6227V5.72687H81.5974V37.1558ZM46.3463 15.6592C48.4867 15.6593 50.2903 16.1435 51.7563 17.1124C53.2223 18.052 54.3362 19.3882 55.0986 21.1204C55.8609 22.8234 56.2425 24.8202 56.2425 27.1104C56.2425 27.6094 56.2131 28.0941 56.1545 28.5638C56.1252 29.0041 56.0661 29.3863 55.9781 29.7092H40.2765C40.4232 31.2359 40.8182 32.5575 41.4633 33.6731C42.1377 34.7595 43.0031 35.6111 44.0587 36.2277C45.1436 36.8149 46.3756 37.1083 47.7537 37.1083C48.8385 37.1083 49.8503 36.9468 50.7886 36.6239C51.7268 36.3009 52.6354 35.8597 53.515 35.3019L55.2749 38.5176C54.1607 39.2517 52.914 39.8679 51.5358 40.3671C50.187 40.8662 48.721 41.1163 47.1376 41.1163C44.9385 41.1163 42.9445 40.6172 41.1559 39.619C39.3672 38.5913 37.9456 37.137 36.89 35.2578C35.8344 33.3493 35.3064 31.0591 35.3064 28.3872C35.3064 26.4201 35.6141 24.6585 36.2298 23.1024C36.8456 21.5168 37.6813 20.1808 38.7368 19.0944C39.7924 17.9786 40.9803 17.1269 42.2998 16.5396C43.6192 15.9524 44.9682 15.6592 46.3463 15.6592ZM15.0459 24.9378L24.7477 8.11343H30.0943V40.5669H25.4644V16.143L17.3622 29.5739L16.2047 31.2945H13.8898L12.7323 29.5559L4.62985 16.143V40.5669H0V8.11343H5.3455L15.0459 24.9378ZM157.965 34.0902C157.965 34.7474 158.079 35.2192 158.307 35.5051C158.564 35.7623 158.836 35.8909 159.121 35.891H159.463L159.501 35.8816C159.745 35.8202 160.891 35.5319 161.105 35.5051L161.704 39.2357C161.417 39.3502 159.935 39.7511 159.506 39.8369C159.078 39.9512 158.549 40.0077 157.922 40.0077C156.723 40.0076 155.767 39.7646 155.053 39.2787C154.339 38.7641 153.825 38.0497 153.511 37.135C153.197 36.1916 153.04 35.0909 153.04 33.8332V5.22827H157.965V34.0902ZM175.26 15.2204C176.688 15.2204 178.073 15.5066 179.415 16.0784C180.757 16.6216 181.941 17.4226 182.969 18.4803C183.997 19.538 184.811 20.8383 185.41 22.382C186.01 23.8972 186.309 25.6419 186.309 27.6146C186.309 30.2159 185.782 32.4458 184.726 34.304C183.698 36.1338 182.341 37.5493 180.656 38.5499C179 39.5219 177.201 40.0077 175.26 40.0077C173.319 40.0076 171.492 39.5218 169.779 38.5499C168.095 37.5493 166.723 36.1338 165.667 34.304C164.639 32.4458 164.126 30.2159 164.126 27.6146C164.126 24.9843 164.639 22.7538 165.667 20.924C166.723 19.0657 168.095 17.6504 169.779 16.6784C171.492 15.7065 173.319 15.2205 175.26 15.2204ZM93.3824 39.4077H88.3241V15.1402H93.3824V39.4077ZM221.828 39.4077H216.903V15.7786H221.828V39.4077ZM234.852 20.5381L235.965 22.5111C236.336 23.1686 236.707 23.8407 237.079 24.5268H237.292C237.578 23.8407 237.878 23.1686 238.192 22.5111L238.706 21.5246L239.22 20.5381L241.704 15.7786H246.843L239.777 27.6146L247.357 39.4077H242.004L238.92 34.3901C238.549 33.7041 238.163 33.0039 237.764 32.2894C237.364 31.5746 236.935 30.888 236.478 30.2304H236.265C235.922 30.888 235.565 31.5746 235.194 32.2894C234.823 32.9754 234.452 33.6755 234.081 34.3901L231.34 39.4077H226.2L233.78 27.0996L226.715 15.7786H232.068L234.852 20.5381ZM72.3086 20.5259C70.9436 20.5259 69.6784 20.8255 68.5132 21.4248C67.3479 21.9908 66.4156 22.9397 65.7164 24.2715C65.0173 25.6032 64.6678 27.3844 64.6678 29.615C64.6678 32.6446 65.4002 34.8586 66.8651 36.2569C68.33 37.6219 70.2777 38.3045 72.7081 38.3045C73.8733 38.3045 74.8221 38.188 75.5545 37.9549C76.3202 37.6886 77.0028 37.3723 77.6021 37.0061V22.1878C77.1025 21.8254 76.52 21.5044 75.8542 21.2252C74.8554 20.7591 73.6736 20.5259 72.3086 20.5259ZM175.26 19.2953C174.004 19.2954 172.919 19.6525 172.006 20.3671C171.121 21.0533 170.435 22.025 169.95 23.2828C169.464 24.5122 169.222 25.9564 169.222 27.6146C169.222 29.2725 169.464 30.7304 169.95 31.9882C170.435 33.2176 171.121 34.176 172.006 34.8622C172.919 35.5482 174.004 35.891 175.26 35.891C176.488 35.891 177.545 35.5483 178.43 34.8622C179.343 34.176 180.043 33.2176 180.529 31.9882C181.014 30.7305 181.256 29.2724 181.256 27.6146C181.256 25.9564 181.014 24.5122 180.529 23.2828C180.043 22.025 179.343 21.0533 178.43 20.3671C177.545 19.6524 176.488 19.2953 175.26 19.2953ZM200.367 18.6943C199.539 18.6943 198.783 18.895 198.097 19.2953C197.441 19.6955 196.912 20.2668 196.513 21.0101C196.113 21.7248 195.913 22.6112 195.913 23.6689C195.913 24.7267 196.113 25.6417 196.513 26.4136C196.941 27.1569 197.484 27.7282 198.14 28.1284C198.826 28.5286 199.568 28.7296 200.367 28.7297C201.167 28.7296 201.909 28.5287 202.594 28.1284C203.279 27.7282 203.822 27.1568 204.222 26.4136C204.621 25.6418 204.821 24.7267 204.821 23.6689C204.821 22.6112 204.621 21.7248 204.222 21.0101C203.822 20.2669 203.279 19.6955 202.594 19.2953C201.938 18.8951 201.195 18.6943 200.367 18.6943ZM46.4334 19.6672C45.4366 19.6673 44.4983 19.9163 43.6188 20.4153C42.7392 20.9145 41.9921 21.649 41.3764 22.618C40.7899 23.5869 40.4084 24.7763 40.2324 26.1856H51.8443C51.8443 24.1303 51.3743 22.5293 50.436 21.3841C49.527 20.2393 48.1926 19.6672 46.4334 19.6672ZM219.388 5.48617C220.272 5.48625 221.001 5.75713 221.571 6.30012C222.142 6.84332 222.428 7.54443 222.428 8.40209C222.428 9.3168 222.142 10.0457 221.571 10.5888C221.001 11.132 220.272 11.4038 219.388 11.4038C218.445 11.4038 217.689 11.132 217.118 10.5888C216.575 10.0456 216.304 9.3169 216.304 8.40209C216.304 7.54441 216.575 6.84332 217.118 6.30012C217.689 5.75721 218.446 5.48617 219.388 5.48617ZM90.8752 4.56941C91.7842 4.56941 92.5324 4.84806 93.1189 5.40594C93.7052 5.9638 93.9984 6.68372 93.9984 7.56449C93.9983 8.50371 93.7051 9.25239 93.1189 9.81015C92.5324 10.368 91.7841 10.6465 90.8752 10.6465C89.9077 10.6464 89.1309 10.3679 88.5445 9.81015C87.9875 9.25236 87.7092 8.50386 87.7091 7.56449C87.7091 6.68361 87.9874 5.96383 88.5445 5.40594C89.1309 4.84816 89.9077 4.56946 90.8752 4.56941Z" fill="white"/>
<path d="M121.83 7.82928C123.597 7.8293 125.206 8.35237 126.656 9.39909C128.107 10.4458 129.253 11.9249 130.097 13.8351C130.775 15.3486 131.18 17.0733 131.313 19.009C124.935 19.583 119.171 21.1425 114.292 23.0611C113.832 21.5304 113.602 19.8286 113.602 17.9563C113.602 15.8891 113.945 14.0964 114.631 12.5787C115.343 11.061 116.319 9.89691 117.558 9.08569C118.797 8.24833 120.221 7.82934 121.83 7.82928Z" fill="white"/>
<path d="M131.287 22.0718C131.153 23.4773 130.836 24.7356 130.335 25.8466C129.649 27.3642 128.7 28.5419 127.487 29.3793C126.274 30.2167 124.863 30.6357 123.254 30.6357C121.461 30.6356 119.826 30.1123 118.349 29.0656C117.649 28.5604 117.017 27.9545 116.452 27.248C121.167 25.2411 126.419 23.4853 131.287 22.0718Z" fill="white"/>
<path d="M112.962 28.8314C113.572 29.4386 114.246 29.9884 114.987 30.4784C116.806 31.656 118.876 32.3493 121.197 32.5587C121.464 32.5644 121.808 32.5655 122.195 32.5587C123.321 34.9007 126.638 39.6238 131.955 42.7876C129.239 43.5999 126.316 44.044 123.271 44.044C115.09 44.044 107.79 40.8542 103.015 35.865C104.924 33.3487 108.553 30.9746 112.962 28.8314Z" fill="white"/>
<path d="M123.271 0C137.654 3.68631e-05 149.314 9.85956 149.314 22.0219C149.314 30.0168 144.275 37.0153 136.737 40.8737C130.208 37.9941 127.193 33.963 126.458 32.0493C128.304 31.526 129.926 30.662 131.324 29.4584C132.721 28.2285 133.816 26.7497 134.607 25.0226C135.193 23.7241 135.561 22.3321 135.713 20.847C138.431 20.1336 140.909 19.5535 142.948 19.1243C140.5 18.8519 138.107 18.7455 135.783 18.7769C135.731 17.0236 135.395 15.402 134.765 13.9132C134.106 12.2909 133.169 10.8913 131.956 9.71379C130.77 8.51009 129.359 7.58028 127.724 6.92606C126.116 6.24566 124.361 5.90627 122.463 5.90627C120.564 5.90631 118.797 6.24578 117.163 6.92606C115.554 7.5803 114.142 8.51 112.929 9.71379C111.743 10.8912 110.82 12.2911 110.161 13.9132C109.502 15.5357 109.172 17.3158 109.172 19.2523C109.172 21.2816 109.531 23.1376 110.246 24.8213C105.447 27.1145 101.826 29.6188 99.7473 31.4847C98.1317 28.618 97.2278 25.409 97.2278 22.0219C97.2278 9.85954 108.888 0 123.271 0Z" fill="white"/>
</svg>
