<svg width="14" height="8" viewBox="0 0 14 8" fill="none" xmlns="http://www.w3.org/2000/svg">
<path d="M6.99481 0.319139C6.84419 0.319139 6.70398 0.343202 6.57419 0.391327C6.4444 0.439452 6.32096 0.521952 6.20388 0.638826L0.586065 6.25664C0.413148 6.42976 0.324606 6.64737 0.32044 6.90945C0.316481 7.17133 0.405023 7.39289 0.586065 7.57414C0.767315 7.75518 0.986898 7.8457 1.24481 7.8457C1.50273 7.8457 1.72231 7.75518 1.90356 7.57414L6.99481 2.48258L12.0861 7.57414C12.2592 7.74706 12.4768 7.8356 12.7389 7.83977C13.0008 7.84372 13.2223 7.75518 13.4036 7.57414C13.5846 7.39289 13.6751 7.17331 13.6751 6.91539C13.6751 6.65747 13.5846 6.43789 13.4036 6.25664L7.78575 0.638826C7.66867 0.521952 7.54523 0.439452 7.41544 0.391327C7.28565 0.343202 7.14544 0.319139 6.99481 0.319139Z" fill="#0A0B11"/>
</svg>
