<svg width="40" height="40" viewBox="0 0 40 40" fill="none" xmlns="http://www.w3.org/2000/svg">
<path d="M15 20C9.485 20 5 15.515 5 10C5 4.485 9.485 0 15 0C20.515 0 25 4.485 25 10C25 15.515 20.515 20 15 20ZM37.8267 31.89L36.2033 30.9533C36.48 30.125 36.6667 29.255 36.6667 28.3333C36.6667 27.4117 36.4817 26.5417 36.2033 25.7133L37.8267 24.7767C38.6233 24.3167 38.8967 23.2967 38.4367 22.5C37.975 21.7017 36.9583 21.4267 36.16 21.89L34.5383 22.8267C33.3633 21.5033 31.7983 20.535 30 20.17V18.335C30 17.415 29.2533 16.6683 28.3333 16.6683C27.4133 16.6683 26.6667 17.415 26.6667 18.335V20.17C24.8683 20.5367 23.3033 21.505 22.1283 22.8267L20.5067 21.89C19.7067 21.4283 18.69 21.7017 18.23 22.5C17.77 23.2983 18.0433 24.3167 18.84 24.7767L20.4633 25.7133C20.1867 26.5417 20 27.4117 20 28.3333C20 29.255 20.185 30.125 20.4633 30.9533L18.84 31.89C18.0433 32.35 17.77 33.37 18.23 34.1667C18.54 34.7017 19.0983 35 19.675 35C19.9567 35 20.2433 34.9283 20.5067 34.7767L22.1283 33.84C23.3033 35.1633 24.8683 36.1317 26.6667 36.4967V38.3317C26.6667 39.2517 27.4133 39.9983 28.3333 39.9983C29.2533 39.9983 30 39.2517 30 38.3317V36.4967C31.7983 36.13 33.3633 35.1617 34.5383 33.84L36.16 34.7767C36.4233 34.9283 36.71 35 36.9917 35C37.5683 35 38.1283 34.7017 38.4367 34.1667C38.8967 33.3683 38.6233 32.35 37.8267 31.89ZM28.3333 30.8333C26.955 30.8333 25.8333 29.7117 25.8333 28.3333C25.8333 26.955 26.955 25.8333 28.3333 25.8333C29.7117 25.8333 30.8333 26.955 30.8333 28.3333C30.8333 29.7117 29.7117 30.8333 28.3333 30.8333ZM13.3333 28.3333C13.3333 26.5933 13.645 24.9283 14.19 23.375C6.29667 23.7983 0 30.3367 0 38.3333C0 39.2533 0.746667 40 1.66667 40H18.915C15.5133 37.25 13.3333 33.0483 13.3333 28.3333Z" fill="#1C91F9"/>
</svg>
